<mxfile host="app.diagrams.net" modified="2023-04-12T09:41:20.535Z" agent="Mozilla/5.0 (Windows NT 10.0; Win64; x64) AppleWebKit/537.36 (KHTML, like Gecko) Chrome/112.0.0.0 Safari/537.36 Edg/112.0.1722.34" etag="FDD7F8FaoxKEUOC-xopZ" version="21.1.6" type="github">
  <diagram name="第 1 页" id="8wrt-Rbq8QIeokYqcF73">
    <mxGraphModel dx="2844" dy="1124" grid="1" gridSize="10" guides="1" tooltips="1" connect="1" arrows="1" fold="1" page="1" pageScale="1" pageWidth="827" pageHeight="1169" math="0" shadow="0">
      <root>
        <mxCell id="0" />
        <mxCell id="1" parent="0" />
        <mxCell id="Lo47bV2s7jbGG1OzkjmH-18" style="edgeStyle=orthogonalEdgeStyle;rounded=0;orthogonalLoop=1;jettySize=auto;html=1;" edge="1" parent="1" source="Lo47bV2s7jbGG1OzkjmH-1" target="Lo47bV2s7jbGG1OzkjmH-3">
          <mxGeometry relative="1" as="geometry" />
        </mxCell>
        <mxCell id="Lo47bV2s7jbGG1OzkjmH-1" value="开始" style="strokeWidth=2;html=1;shape=mxgraph.flowchart.terminator;whiteSpace=wrap;" vertex="1" parent="1">
          <mxGeometry x="350" y="40" width="100" height="60" as="geometry" />
        </mxCell>
        <mxCell id="Lo47bV2s7jbGG1OzkjmH-2" value="结束" style="strokeWidth=2;html=1;shape=mxgraph.flowchart.terminator;whiteSpace=wrap;" vertex="1" parent="1">
          <mxGeometry x="350" y="900" width="100" height="60" as="geometry" />
        </mxCell>
        <mxCell id="Lo47bV2s7jbGG1OzkjmH-8" style="edgeStyle=orthogonalEdgeStyle;rounded=0;orthogonalLoop=1;jettySize=auto;html=1;exitX=0.5;exitY=1;exitDx=0;exitDy=0;entryX=0.5;entryY=0;entryDx=0;entryDy=0;" edge="1" parent="1" source="Lo47bV2s7jbGG1OzkjmH-3" target="Lo47bV2s7jbGG1OzkjmH-4">
          <mxGeometry relative="1" as="geometry" />
        </mxCell>
        <mxCell id="Lo47bV2s7jbGG1OzkjmH-9" style="edgeStyle=orthogonalEdgeStyle;rounded=0;orthogonalLoop=1;jettySize=auto;html=1;entryX=0.5;entryY=0;entryDx=0;entryDy=0;" edge="1" parent="1" source="Lo47bV2s7jbGG1OzkjmH-3" target="Lo47bV2s7jbGG1OzkjmH-5">
          <mxGeometry relative="1" as="geometry" />
        </mxCell>
        <mxCell id="Lo47bV2s7jbGG1OzkjmH-10" style="edgeStyle=orthogonalEdgeStyle;rounded=0;orthogonalLoop=1;jettySize=auto;html=1;entryX=0.5;entryY=0;entryDx=0;entryDy=0;" edge="1" parent="1" source="Lo47bV2s7jbGG1OzkjmH-3" target="Lo47bV2s7jbGG1OzkjmH-6">
          <mxGeometry relative="1" as="geometry" />
        </mxCell>
        <mxCell id="Lo47bV2s7jbGG1OzkjmH-11" style="edgeStyle=orthogonalEdgeStyle;rounded=0;orthogonalLoop=1;jettySize=auto;html=1;entryX=0.5;entryY=0;entryDx=0;entryDy=0;" edge="1" parent="1" source="Lo47bV2s7jbGG1OzkjmH-3" target="Lo47bV2s7jbGG1OzkjmH-7">
          <mxGeometry relative="1" as="geometry">
            <Array as="points">
              <mxPoint x="400" y="230" />
              <mxPoint x="700" y="230" />
            </Array>
          </mxGeometry>
        </mxCell>
        <mxCell id="Lo47bV2s7jbGG1OzkjmH-3" value="软件启动" style="rounded=1;whiteSpace=wrap;html=1;" vertex="1" parent="1">
          <mxGeometry x="340" y="140" width="120" height="60" as="geometry" />
        </mxCell>
        <mxCell id="Lo47bV2s7jbGG1OzkjmH-13" style="edgeStyle=orthogonalEdgeStyle;rounded=0;orthogonalLoop=1;jettySize=auto;html=1;entryX=0.5;entryY=0;entryDx=0;entryDy=0;" edge="1" parent="1" source="Lo47bV2s7jbGG1OzkjmH-4" target="Lo47bV2s7jbGG1OzkjmH-12">
          <mxGeometry relative="1" as="geometry" />
        </mxCell>
        <mxCell id="Lo47bV2s7jbGG1OzkjmH-4" value="按键1短按" style="rounded=1;whiteSpace=wrap;html=1;" vertex="1" parent="1">
          <mxGeometry x="40" y="260" width="120" height="60" as="geometry" />
        </mxCell>
        <mxCell id="Lo47bV2s7jbGG1OzkjmH-5" value="按键1长按" style="rounded=1;whiteSpace=wrap;html=1;" vertex="1" parent="1">
          <mxGeometry x="240" y="260" width="120" height="60" as="geometry" />
        </mxCell>
        <mxCell id="Lo47bV2s7jbGG1OzkjmH-20" style="edgeStyle=orthogonalEdgeStyle;rounded=0;orthogonalLoop=1;jettySize=auto;html=1;entryX=1;entryY=0.5;entryDx=0;entryDy=0;" edge="1" parent="1" source="Lo47bV2s7jbGG1OzkjmH-6" target="Lo47bV2s7jbGG1OzkjmH-12">
          <mxGeometry relative="1" as="geometry">
            <Array as="points">
              <mxPoint x="500" y="390" />
            </Array>
          </mxGeometry>
        </mxCell>
        <mxCell id="Lo47bV2s7jbGG1OzkjmH-6" value="按键2短按" style="rounded=1;whiteSpace=wrap;html=1;" vertex="1" parent="1">
          <mxGeometry x="440" y="260" width="120" height="60" as="geometry" />
        </mxCell>
        <mxCell id="Lo47bV2s7jbGG1OzkjmH-30" style="edgeStyle=orthogonalEdgeStyle;rounded=0;orthogonalLoop=1;jettySize=auto;html=1;entryX=1;entryY=0.5;entryDx=0;entryDy=0;" edge="1" parent="1" source="Lo47bV2s7jbGG1OzkjmH-7" target="Lo47bV2s7jbGG1OzkjmH-27">
          <mxGeometry relative="1" as="geometry">
            <Array as="points">
              <mxPoint x="700" y="830" />
            </Array>
          </mxGeometry>
        </mxCell>
        <mxCell id="Lo47bV2s7jbGG1OzkjmH-7" value="按键2长按" style="rounded=1;whiteSpace=wrap;html=1;" vertex="1" parent="1">
          <mxGeometry x="640" y="260" width="120" height="60" as="geometry" />
        </mxCell>
        <mxCell id="Lo47bV2s7jbGG1OzkjmH-21" style="edgeStyle=orthogonalEdgeStyle;rounded=0;orthogonalLoop=1;jettySize=auto;html=1;exitX=0.5;exitY=1;exitDx=0;exitDy=0;entryX=0.5;entryY=0;entryDx=0;entryDy=0;" edge="1" parent="1" source="Lo47bV2s7jbGG1OzkjmH-12" target="Lo47bV2s7jbGG1OzkjmH-17">
          <mxGeometry relative="1" as="geometry" />
        </mxCell>
        <mxCell id="Lo47bV2s7jbGG1OzkjmH-12" value="语音提示输入目的地" style="rounded=1;whiteSpace=wrap;html=1;" vertex="1" parent="1">
          <mxGeometry x="40" y="360" width="120" height="60" as="geometry" />
        </mxCell>
        <mxCell id="Lo47bV2s7jbGG1OzkjmH-19" style="edgeStyle=orthogonalEdgeStyle;rounded=0;orthogonalLoop=1;jettySize=auto;html=1;entryX=0;entryY=0.5;entryDx=0;entryDy=0;" edge="1" parent="1" source="Lo47bV2s7jbGG1OzkjmH-16" target="Lo47bV2s7jbGG1OzkjmH-5">
          <mxGeometry relative="1" as="geometry" />
        </mxCell>
        <mxCell id="Lo47bV2s7jbGG1OzkjmH-25" style="edgeStyle=orthogonalEdgeStyle;rounded=0;orthogonalLoop=1;jettySize=auto;html=1;" edge="1" parent="1" source="Lo47bV2s7jbGG1OzkjmH-16" target="Lo47bV2s7jbGG1OzkjmH-24">
          <mxGeometry relative="1" as="geometry">
            <Array as="points">
              <mxPoint x="-20" y="600" />
              <mxPoint x="-20" y="660" />
              <mxPoint x="400" y="660" />
            </Array>
          </mxGeometry>
        </mxCell>
        <mxCell id="Lo47bV2s7jbGG1OzkjmH-16" value="语音提示是否确认目的地" style="rhombus;whiteSpace=wrap;html=1;" vertex="1" parent="1">
          <mxGeometry x="5" y="560" width="190" height="80" as="geometry" />
        </mxCell>
        <mxCell id="Lo47bV2s7jbGG1OzkjmH-23" style="edgeStyle=orthogonalEdgeStyle;rounded=0;orthogonalLoop=1;jettySize=auto;html=1;entryX=0.5;entryY=0;entryDx=0;entryDy=0;" edge="1" parent="1" source="Lo47bV2s7jbGG1OzkjmH-17" target="Lo47bV2s7jbGG1OzkjmH-16">
          <mxGeometry relative="1" as="geometry" />
        </mxCell>
        <mxCell id="Lo47bV2s7jbGG1OzkjmH-17" value="搜索目的地" style="rounded=1;whiteSpace=wrap;html=1;" vertex="1" parent="1">
          <mxGeometry x="40" y="460" width="120" height="60" as="geometry" />
        </mxCell>
        <mxCell id="Lo47bV2s7jbGG1OzkjmH-28" style="edgeStyle=orthogonalEdgeStyle;rounded=0;orthogonalLoop=1;jettySize=auto;html=1;entryX=0.5;entryY=0;entryDx=0;entryDy=0;" edge="1" parent="1" source="Lo47bV2s7jbGG1OzkjmH-24" target="Lo47bV2s7jbGG1OzkjmH-27">
          <mxGeometry relative="1" as="geometry" />
        </mxCell>
        <mxCell id="Lo47bV2s7jbGG1OzkjmH-24" value="步行导航开始" style="rounded=1;whiteSpace=wrap;html=1;" vertex="1" parent="1">
          <mxGeometry x="340" y="680" width="120" height="60" as="geometry" />
        </mxCell>
        <mxCell id="Lo47bV2s7jbGG1OzkjmH-29" style="edgeStyle=orthogonalEdgeStyle;rounded=0;orthogonalLoop=1;jettySize=auto;html=1;exitX=0.5;exitY=1;exitDx=0;exitDy=0;entryX=0.5;entryY=0;entryDx=0;entryDy=0;entryPerimeter=0;" edge="1" parent="1" source="Lo47bV2s7jbGG1OzkjmH-27" target="Lo47bV2s7jbGG1OzkjmH-2">
          <mxGeometry relative="1" as="geometry" />
        </mxCell>
        <mxCell id="Lo47bV2s7jbGG1OzkjmH-27" value="步行导航结束" style="rounded=1;whiteSpace=wrap;html=1;" vertex="1" parent="1">
          <mxGeometry x="340" y="800" width="120" height="60" as="geometry" />
        </mxCell>
        <mxCell id="Lo47bV2s7jbGG1OzkjmH-31" value="Yes" style="text;html=1;align=center;verticalAlign=middle;resizable=0;points=[];autosize=1;strokeColor=none;fillColor=none;" vertex="1" parent="1">
          <mxGeometry x="225" y="555" width="40" height="30" as="geometry" />
        </mxCell>
        <mxCell id="Lo47bV2s7jbGG1OzkjmH-32" value="No" style="text;html=1;align=center;verticalAlign=middle;resizable=0;points=[];autosize=1;strokeColor=none;fillColor=none;" vertex="1" parent="1">
          <mxGeometry y="615" width="40" height="30" as="geometry" />
        </mxCell>
      </root>
    </mxGraphModel>
  </diagram>
</mxfile>
